{
	"asset":
	{
		"version": "2.0",
		"generator": "Unreal Engine 5.2.1"
	},
	"scene": 0,
	"accessors": [
		{
			"bufferView": 0,
			"count": 1224,
			"type": "SCALAR",
			"componentType": 5123
		},
		{
			"bufferView": 1,
			"count": 262,
			"type": "VEC3",
			"componentType": 5126,
			"min": [ -0.0778688341, -0.00200658245, -0.0993513688 ],
			"max": [ 0.0693134442, 0.0212942827, 0.100648642 ]
		},
		{
			"bufferView": 2,
			"count": 262,
			"type": "VEC3",
			"componentType": 5126
		},
		{
			"bufferView": 3,
			"count": 262,
			"type": "VEC4",
			"componentType": 5126
		},
		{
			"bufferView": 4,
			"count": 262,
			"type": "VEC2",
			"componentType": 5126
		},
		{
			"bufferView": 5,
			"count": 262,
			"type": "VEC2",
			"componentType": 5126
		}
	],
	"buffers": [
		{
			"uri": "agenda.bin",
			"byteLength": 17120
		}
	],
	"bufferViews": [
		{
			"buffer": 0,
			"byteLength": 2448,
			"target": 34963
		},
		{
			"buffer": 0,
			"byteLength": 3144,
			"byteOffset": 2448,
			"target": 34962
		},
		{
			"buffer": 0,
			"byteLength": 3144,
			"byteOffset": 5592,
			"target": 34962
		},
		{
			"buffer": 0,
			"byteLength": 4192,
			"byteOffset": 8736,
			"target": 34962
		},
		{
			"buffer": 0,
			"byteLength": 2096,
			"byteOffset": 12928,
			"target": 34962
		},
		{
			"buffer": 0,
			"byteLength": 2096,
			"byteOffset": 15024,
			"target": 34962
		}
	],
	"images": [
		{
			"uri": "MI_Notebook_Normal.png"
		},
		{
			"uri": "T_Notebook_BC.png"
		},
		{
			"uri": "T_Notebook_ORM_Linear.png"
		}
	],
	"materials": [
		{
			"name": "MI_Notebook",
			"pbrMetallicRoughness":
			{
				"baseColorTexture":
				{
					"index": 0
				},
				"metallicRoughnessTexture":
				{
					"index": 1
				}
			},
			"normalTexture":
			{
				"index": 2
			},
			"occlusionTexture":
			{
				"index": 1
			}
		}
	],
	"meshes": [
		{
			"name": "SM_Notebook",
			"primitives": [
				{
					"attributes":
					{
						"POSITION": 1,
						"NORMAL": 2,
						"TANGENT": 3,
						"TEXCOORD_0": 4,
						"TEXCOORD_1": 5
					},
					"indices": 0,
					"material": 0
				}
			]
		}
	],
	"nodes": [
		{
			"name": "Notebook",
			"translation": [ 2.87134886, 0.902021945, -0.49211821 ],
			"rotation": [ -0, -0.984808147, 0, 0.173646495 ],
			"mesh": 0
		}
	],
	"samplers": [
		{
			"minFilter": 9987,
			"magFilter": 9729
		}
	],
	"scenes": [
		{
			"name": "tests",
			"nodes": [ 0 ]
		}
	],
	"textures": [
		{
			"name": "T_Notebook_BC",
			"sampler": 0,
			"source": 1
		},
		{
			"name": "T_Notebook_ORM_Linear",
			"sampler": 0,
			"source": 2
		},
		{
			"name": "MI_Notebook_Normal",
			"sampler": 0,
			"source": 0
		}
	]
}