{
	"asset":
	{
		"version": "2.0",
		"generator": "Unreal Engine 5.2.1"
	},
	"scene": 0,
	"accessors": [
		{
			"bufferView": 0,
			"count": 4902,
			"type": "SCALAR",
			"componentType": 5123
		},
		{
			"bufferView": 1,
			"count": 1070,
			"type": "VEC3",
			"componentType": 5126,
			"min": [ -0.139999181, 6.52023809e-05, -0.161686495 ],
			"max": [ 0.14000091, 0.372970194, 0.136373609 ]
		},
		{
			"bufferView": 2,
			"count": 1070,
			"type": "VEC3",
			"componentType": 5126
		},
		{
			"bufferView": 3,
			"count": 1070,
			"type": "VEC4",
			"componentType": 5126
		},
		{
			"bufferView": 4,
			"count": 1070,
			"type": "VEC2",
			"componentType": 5126
		},
		{
			"bufferView": 5,
			"count": 1070,
			"type": "VEC2",
			"componentType": 5126
		}
	],
	"buffers": [
		{
			"uri": "globe.bin",
			"byteLength": 69724
		}
	],
	"bufferViews": [
		{
			"buffer": 0,
			"byteLength": 9804,
			"target": 34963
		},
		{
			"buffer": 0,
			"byteLength": 12840,
			"byteOffset": 9804,
			"target": 34962
		},
		{
			"buffer": 0,
			"byteLength": 12840,
			"byteOffset": 22644,
			"target": 34962
		},
		{
			"buffer": 0,
			"byteLength": 17120,
			"byteOffset": 35484,
			"target": 34962
		},
		{
			"buffer": 0,
			"byteLength": 8560,
			"byteOffset": 52604,
			"target": 34962
		},
		{
			"buffer": 0,
			"byteLength": 8560,
			"byteOffset": 61164,
			"target": 34962
		}
	],
	"images": [
		{
			"uri": "MI_Globe_Normal.png"
		},
		{
			"uri": "T_Globe_BC.png"
		},
		{
			"uri": "T_Globe_ORM_Linear.png"
		}
	],
	"materials": [
		{
			"name": "MI_Globe",
			"pbrMetallicRoughness":
			{
				"baseColorTexture":
				{
					"index": 0
				},
				"metallicRoughnessTexture":
				{
					"index": 1
				}
			},
			"normalTexture":
			{
				"index": 2
			},
			"occlusionTexture":
			{
				"index": 1
			}
		}
	],
	"meshes": [
		{
			"name": "SM_Globe",
			"primitives": [
				{
					"attributes":
					{
						"POSITION": 1,
						"NORMAL": 2,
						"TANGENT": 3,
						"TEXCOORD_0": 4,
						"TEXCOORD_1": 5
					},
					"indices": 0,
					"material": 0
				}
			]
		}
	],
	"nodes": [
		{
			"name": "Globe2",
			"translation": [ 1.99484861, 0.90199995, -0.147160873 ],
			"rotation": [ 0, 0.995518267, -0, 0.0945697576 ],
			"scale": [ 0.755133986, 0.755133986, 0.755133986 ],
			"mesh": 0
		}
	],
	"samplers": [
		{
			"minFilter": 9987,
			"magFilter": 9729
		}
	],
	"scenes": [
		{
			"name": "tests",
			"nodes": [ 0 ]
		}
	],
	"textures": [
		{
			"name": "T_Globe_BC",
			"sampler": 0,
			"source": 1
		},
		{
			"name": "T_Globe_ORM_Linear",
			"sampler": 0,
			"source": 2
		},
		{
			"name": "MI_Globe_Normal",
			"sampler": 0,
			"source": 0
		}
	]
}